<svg width="90" height="90" viewBox="0 0 90 90" fill="none" xmlns="http://www.w3.org/2000/svg">
<circle cx="45" cy="45" r="45" fill="#222222"/>
<path fill-rule="evenodd" clip-rule="evenodd" d="M44.9963 30H45.0037C53.2744 30 60 36.7294 60 45C60 53.2706 53.2744 60 45.0037 60C41.9531 60 39.1237 59.0925 36.7519 57.5213L30.9863 59.3644L32.8556 53.7919C31.0575 51.3225 30 48.2812 30 45C30 36.7275 36.7256 30 44.9963 30ZM50.7883 53.2987C51.9339 53.0512 53.3702 52.2037 53.732 51.1818C54.0939 50.1581 54.0939 49.2862 53.9889 49.1006C53.9041 48.9533 53.7036 48.8568 53.4043 48.7127C53.3264 48.6752 53.2418 48.6344 53.1508 48.5887C52.7102 48.3693 50.567 47.31 50.162 47.1693C49.7645 47.0193 49.3858 47.0718 49.0858 47.4956C49.0287 47.5755 48.9718 47.6555 48.9152 47.7351C48.5533 48.2442 48.2041 48.7352 47.9139 49.0481C47.6495 49.3293 47.2183 49.365 46.8564 49.215C46.817 49.1985 46.7717 49.1803 46.7211 49.1598C46.1481 48.9284 44.8773 48.4151 43.3389 47.0456C42.0414 45.8906 41.1602 44.4525 40.9052 44.0212C40.6548 43.5886 40.8707 43.3349 41.0703 43.1005C41.074 43.0961 41.0777 43.0918 41.0814 43.0875C41.2101 42.9283 41.335 42.7957 41.4605 42.6624C41.5507 42.5666 41.6413 42.4704 41.7339 42.3637C41.7477 42.3479 41.761 42.3325 41.7741 42.3175C41.9706 42.0915 42.0876 41.957 42.2195 41.6756C42.3695 41.385 42.2627 41.085 42.1558 40.8637C42.0822 40.7088 41.628 39.6067 41.2381 38.6606C41.0712 38.2557 40.9161 37.8794 40.8077 37.6181C40.517 36.9225 40.2958 36.8962 39.8552 36.8775C39.8417 36.8768 39.828 36.8761 39.8143 36.8754C39.675 36.8684 39.5216 36.8606 39.3527 36.8606C38.7789 36.8606 38.1808 37.0293 37.8189 37.3987C37.8063 37.4116 37.7931 37.425 37.7794 37.439C37.3164 37.9098 36.2852 38.9586 36.2852 41.0493C36.2852 43.1441 37.7715 45.1714 38.0465 45.5465C38.0541 45.5568 38.0607 45.5659 38.0664 45.5737C38.083 45.5955 38.1141 45.6406 38.1595 45.7064C38.7211 46.5195 41.4561 50.4803 45.5345 52.17C48.9808 53.5987 50.0045 53.4656 50.7883 53.2987Z" fill="white"/>
</svg>
