<svg width="90" height="90" viewBox="0 0 90 90" fill="none" xmlns="http://www.w3.org/2000/svg">
<circle cx="45" cy="45" r="45" fill="#222222"/>
<path d="M59.5305 30.0005C58.4684 29.9848 56.0011 30.3453 51.8817 33.1024C49.6365 32.5413 47.2477 32.2644 44.8548 32.2644C42.2219 32.2644 39.5612 32.5987 37.0799 33.2794C31.1655 29.2446 28.555 30.0715 28.555 30.0715C26.8508 34.3333 27.9039 37.4887 28.224 38.2723C26.2209 40.4342 24.998 43.1948 24.998 46.5782C24.998 49.1325 25.2888 51.4235 25.999 53.4151C26.0384 53.5688 26.0257 53.5346 26.092 53.6661C26.2485 54.0784 26.4225 54.4786 26.618 54.8651C26.6851 55.0042 26.746 55.1071 26.746 55.1071C28.7427 58.829 32.6787 61.2331 39.6819 61.988L50.2737 62C57.7422 61.2594 61.326 58.8481 62.9775 55.1011L63.0825 54.8571C63.239 54.4786 63.3754 54.0848 63.7485 52.7591C64.1216 51.4335 64.2885 49.1376 64.2885 46.5772C64.2885 42.9051 62.9093 39.9667 60.6696 37.7313C61.061 36.468 61.5838 33.6623 60.1476 30.0705C60.1476 30.0705 59.9462 30.0066 59.5306 30.0004L59.5305 30.0005ZM51.1836 43.4763C52.9082 43.4725 54.3855 43.7686 55.4946 44.9322V44.9332C56.8824 46.3905 57.6946 48.15 57.6946 50.0461C57.6946 58.8992 52.0007 59.14 44.9778 59.14C37.9536 59.14 32.261 57.9132 32.261 50.0461C32.261 48.1626 33.0612 46.4136 34.4319 44.9622C36.7184 42.5433 40.5876 43.8242 44.9778 43.8242C47.2313 43.8239 49.3478 43.4802 51.1837 43.4762L51.1836 43.4763ZM38.1018 46.0832C36.6405 46.0832 35.4558 48.0589 35.4558 50.4972C35.4558 52.9358 36.6404 54.9121 38.1018 54.9121C39.5631 54.9121 40.7478 52.9358 40.7478 50.4972C40.7478 48.0593 39.5632 46.085 38.1018 46.0832ZM52.2986 46.0832C50.8373 46.0832 49.6526 48.0589 49.6526 50.4972C49.6526 52.9358 50.8372 54.9121 52.2986 54.9121C53.7599 54.9121 54.9446 52.9358 54.9446 50.4972C54.9446 48.0593 53.76 46.085 52.2986 46.0832Z" fill="white"/>
</svg>
