<svg width="46" height="46" viewBox="0 0 46 46" fill="none" xmlns="http://www.w3.org/2000/svg">
<path d="M45.1325 20.9504L25.0484 0.867486C23.8925 -0.289162 22.0166 -0.289162 20.8592 0.867486L16.6887 5.03803L21.9792 10.3286C23.2086 9.91313 24.6184 10.1918 25.5985 11.1718C26.5831 12.1581 26.8599 13.58 26.4344 14.8134L31.533 19.9122C32.7666 19.4872 34.1899 19.7622 35.1751 20.749C36.552 22.1254 36.552 24.3562 35.1751 25.7335C33.7978 27.111 31.567 27.111 30.1889 25.7335C29.1532 24.6967 28.8973 23.1757 29.4217 21.8997L24.6668 17.1448L24.6662 29.6577C25.0109 29.8282 25.3257 30.0533 25.5985 30.3244C26.9754 31.7008 26.9754 33.9318 25.5985 35.3102C24.2212 36.6869 21.9893 36.6869 20.6139 35.3102C19.237 33.9318 19.237 31.701 20.6139 30.3246C20.9439 29.9944 21.3361 29.733 21.7677 29.5553V16.9258C21.3354 16.7493 20.9431 16.4877 20.6139 16.1566C19.5707 15.1147 19.3198 13.584 19.8544 12.303L14.6391 7.08719L0.867891 20.8575C-0.289297 22.0153 -0.289297 23.8914 0.867891 25.0482L20.9523 45.1315C22.1086 46.2884 23.9841 46.2884 25.1419 45.1315L45.1323 25.1415C46.2891 23.9843 46.2891 22.1071 45.1323 20.9504" fill="#DE4C36"/>
</svg>
