<svg width="30" height="66" viewBox="0 0 30 66" fill="none" xmlns="http://www.w3.org/2000/svg">
<path d="M23.1154 63.9884L23.7511 53.4435L25.5063 50.4607C25.5063 50.4607 21.5113 52.0876 14.823 52.0876C8.13464 52.0876 4.2002 50.4908 4.2002 50.4908L6.16736 53.7446L6.86326 63.9884C6.86326 65.0866 10.5013 65.9768 14.9894 65.9768C19.4772 65.9768 23.1154 65.0866 23.1154 63.9884Z" fill="#D34A47"/>
<path d="M21.1097 14.7458L22.444 9.49549L29.833 1.75553L27.8855 0.104248L20.0628 8.34923L18.5136 14.6219C17.3476 14.583 16.181 14.5637 15.0144 14.564C6.77559 14.564 0.0966797 15.4987 0.0966797 16.6515C0.0966797 17.8044 6.77559 18.739 15.0144 18.739C23.2531 18.739 29.9319 17.8044 29.9319 16.6515C29.9319 15.8026 26.3096 15.0719 21.1097 14.7458Z" fill="#D34A47"/>
<path d="M20.3336 17.6856C20.3336 17.6856 20.0446 17.7501 19.1945 17.7537C18.3443 17.7572 17.7406 17.7483 17.5001 17.5302C17.4354 17.4717 17.4 17.3554 17.4004 17.2767C17.4011 17.1268 17.5079 17.0386 17.644 16.9833L17.7728 17.1843C17.7168 17.2036 17.6848 17.2263 17.6847 17.2506C17.6842 17.3644 18.5541 17.4423 19.2194 17.4339C19.8848 17.4257 20.6888 17.3711 20.6895 17.259C20.6895 17.225 20.6287 17.1931 20.523 17.1679L20.6511 16.9683C20.8235 17.0216 20.9741 17.1245 20.9737 17.3027C20.9721 17.6056 20.5848 17.6517 20.3336 17.6856Z" fill="white"/>
<path d="M29.8183 1.77074C30.0041 1.55712 29.7221 1.01069 29.1886 0.550442C28.6548 0.0904239 28.0715 -0.109442 27.8853 0.104184C27.6994 0.317809 27.9815 0.864233 28.5153 1.32425C29.0488 1.78438 29.6324 1.98448 29.8183 1.77074Z" fill="#D34A47"/>
<path d="M22.7589 38.2318C22.5837 36.5545 26.4442 34.1253 25.4534 34.0475C23.3206 34.1689 22.2592 36.5357 21.1861 39.0146C20.7929 39.9231 19.4473 43.797 18.5648 43.3201C17.6826 42.8434 19.7087 39.6578 20.2765 37.7659C19.6213 38.2442 17.2183 40.1029 16.599 38.3623C15.6033 39.204 13.4758 39.6601 13.7158 37.4489C13.1861 38.3829 11.9973 39.6869 10.5704 39.145C8.69646 38.4336 11.6562 32.4912 12.3922 32.791C13.1283 33.0907 12.2437 34.4444 12.012 34.97C11.5024 36.1269 10.9138 37.5812 11.307 37.8789C11.9807 38.389 13.8138 35.9494 13.8546 35.8958C14.1975 35.4448 15.1743 32.4948 15.9615 32.8335C16.7488 33.1723 13.9979 37.0673 15.0264 37.8403C15.2339 37.9963 16.0826 37.7441 16.599 37.188C16.933 36.8283 16.8181 36.0315 17.9317 33.3878C19.0453 30.7442 20.0378 27.4519 20.8015 27.7027C21.5652 27.9534 20.9358 29.6431 20.6618 30.2731C19.3761 33.2295 17.1529 38.1139 18.2014 37.7441C19.2498 37.3745 19.7958 37.3528 20.8225 36.1567C21.8492 34.9607 21.8019 32.9906 22.4862 33.0325C23.1707 33.0744 23.0558 33.7061 22.8898 34.1871C23.5633 33.4198 26.0824 31.8039 26.6906 33.4043C27.411 35.2991 23.0865 38.036 24.1647 37.8964C25.216 37.7603 26.9191 36.6865 27.6463 35.7101L29.6479 17.7961C29.6479 17.7961 27.6338 19.4555 14.8199 19.4555C2.00595 19.4555 0.200195 17.8307 0.200195 17.8307L1.90427 34.1819C2.80879 31.6227 4.95669 26.4462 8.34236 26.62C9.88245 26.699 11.9384 29.6512 10.1773 29.7512C9.43183 29.7935 9.35616 28.2777 8.47343 28.0551C7.83645 27.8944 6.94963 28.4099 6.37648 28.9685C5.23348 30.0821 2.77517 34.4757 3.09999 36.6662C3.51382 39.4588 6.97106 35.6958 7.55603 34.5786C7.968 33.7916 8.24631 31.4599 9.14731 31.7045C10.0484 31.9492 9.06871 34.3555 8.41557 36.483C7.68184 38.872 7.29611 41.392 6.37648 41.1021C5.45674 40.8124 6.9549 37.7284 6.90066 37.188C6.03621 37.982 4.44364 39.9921 2.4062 38.9972L3.46451 49.1512C3.46451 49.1512 6.27727 51.3636 14.7505 51.3636C23.2236 51.3636 26.1405 49.1857 26.1405 49.1857L27.4547 37.425C26.3795 38.4672 22.9767 40.318 22.7589 38.2318Z" fill="#D34A47"/>
</svg>
