<svg width="43" height="60" viewBox="0 0 43 60" fill="none" xmlns="http://www.w3.org/2000/svg">
<g clip-path="url(#clip0)">
<path d="M42.4816 11.7617L38.6188 55.0349L21.2554 59.8485L3.93984 55.0415L0.0810547 11.7617H42.4816Z" fill="#E44D26"/>
<path d="M21.2812 56.1689L35.3118 52.2792L38.6126 15.3003H21.2812V56.1689Z" fill="#F16529"/>
<path d="M13.7718 25.9167H21.2809V20.6086H7.9707L8.09768 22.0327L9.40239 36.6604H21.2809V31.3523H14.2569L13.7718 25.9167Z" fill="#EBEBEB"/>
<path d="M14.9692 39.3145H9.64062L10.3842 47.649L21.2575 50.6673L21.282 50.6606V45.1379L21.2587 45.1441L15.3471 43.5479L14.9692 39.3145Z" fill="#EBEBEB"/>
<path d="M4.02637 0H6.72387V2.6651H9.19152V0H11.8892V8.07058H9.19169V5.36809H6.72404V8.07058H4.02653V0H4.02637Z" fill="black"/>
<path d="M15.4359 2.6764H13.0615V0H20.5098V2.6764H18.1339V8.07058H15.4364V2.6764H15.4363H15.4359Z" fill="black"/>
<path d="M21.6924 0H24.5051L26.2353 2.83579L27.9638 0H30.7776V8.07058H28.0911V4.07036L26.2353 6.93989H26.1887L24.3317 4.07036V8.07058H21.6924V0Z" fill="black"/>
<path d="M32.1193 0H34.8176V5.40299H38.6111V8.07058H32.1191V0H32.1193Z" fill="black"/>
<path d="M21.2629 36.6604H27.7992L27.1829 43.5446L21.2627 45.1425V50.6648L32.1446 47.649L32.2244 46.7522L33.4719 32.7777L33.6014 31.3523H21.2629V36.6604Z" fill="white"/>
<path d="M21.2627 25.9038V25.9167H34.0842L34.1906 24.7237L34.4326 22.0327L34.5594 20.6086H21.2627V25.9039V25.9038Z" fill="white"/>
</g>
<defs>
<clipPath id="clip0">
<rect width="42.5625" height="60" fill="white"/>
</clipPath>
</defs>
</svg>
