<svg width="32" height="46" viewBox="0 0 32 46" fill="none" xmlns="http://www.w3.org/2000/svg">
<path d="M23.6667 30.6666C27.9009 30.6666 31.3333 27.2341 31.3333 22.9999C31.3333 18.7657 27.9009 15.3333 23.6667 15.3333C19.4325 15.3333 16 18.7657 16 22.9999C16 27.2341 19.4325 30.6666 23.6667 30.6666Z" fill="#19BCFE"/>
<path fill-rule="evenodd" clip-rule="evenodd" d="M8.33366 46.0001C10.367 46.0001 12.317 45.1923 13.7548 43.7546C15.1926 42.3168 16.0003 40.3667 16.0003 38.3334V30.6667H8.33366C6.30033 30.6667 4.35029 31.4745 2.91251 32.9123C1.47473 34.35 0.666992 36.3001 0.666992 38.3334C0.666992 40.3667 1.47473 42.3168 2.91251 43.7546C4.35029 45.1923 6.30033 46.0001 8.33366 46.0001Z" fill="#09CF83"/>
<path fill-rule="evenodd" clip-rule="evenodd" d="M8.33366 30.6666H16.0003V15.3333H8.33366C6.30033 15.3333 4.35029 16.141 2.91251 17.5788C1.47473 19.0165 0.666992 20.9666 0.666992 22.9999C0.666992 25.0332 1.47473 26.9833 2.91251 28.4211C4.35029 29.8589 6.30033 30.6666 8.33366 30.6666Z" fill="#A259FF"/>
<path fill-rule="evenodd" clip-rule="evenodd" d="M8.33366 15.3333H16.0003V0H8.33366C6.30033 0 4.35029 0.807736 2.91251 2.24551C1.47473 3.68329 0.666992 5.63334 0.666992 7.66667C0.666992 9.69999 1.47473 11.65 2.91251 13.0878C4.35029 14.5256 6.30033 15.3333 8.33366 15.3333Z" fill="#F24E1E"/>
<path fill-rule="evenodd" clip-rule="evenodd" d="M23.6667 15.3333H16V0H23.6667C25.7 0 27.65 0.807736 29.0878 2.24551C30.5256 3.68329 31.3333 5.63334 31.3333 7.66667C31.3333 9.69999 30.5256 11.65 29.0878 13.0878C27.65 14.5256 25.7 15.3333 23.6667 15.3333Z" fill="#FF7262"/>
</svg>
