<svg width="55" height="55" viewBox="0 0 55 55" fill="none" xmlns="http://www.w3.org/2000/svg">
<path d="M47.2656 9.45312H31.2813L27.6719 16.6719H7.5625V45.5469H50.875V9.45312H47.2656ZM47.2656 16.6719H33.1719L35.0625 13.0625H47.2656V16.6719Z" fill="#5597BF"/>
<path d="M24.3668 49.6736L21.4707 17.1875H53.2951L50.3973 49.6684L37.364 53.2812L24.3668 49.6736Z" fill="#1572B6"/>
<path d="M37.3828 50.5193L47.9136 47.5991L50.392 19.843H37.3828V50.5193Z" fill="#33A9DC"/>
<path d="M37.3828 31.613H42.6559L43.0186 27.5326H37.3828V23.5486H47.3739L47.2777 24.6176L46.298 35.597H37.3828V31.613Z" fill="white"/>
<path d="M37.4071 41.9599L37.3899 41.965L32.9521 40.7671L32.6685 37.5891H28.6689L29.2275 43.8454L37.3882 46.1107L37.4071 46.1055V41.9599Z" fill="#EBEBEB"/>
<path d="M42.3161 35.4287L41.8365 40.7654L37.3936 41.9634V46.109L45.5611 43.8454L45.6212 43.1717L46.3139 35.4287H42.3161Z" fill="white"/>
<path d="M37.3968 23.5486V27.5326H27.7735L27.6927 26.6372L27.5123 24.6176L27.416 23.5486H37.3968Z" fill="#EBEBEB"/>
<path d="M37.3824 31.613V35.5988H33.0013L32.9222 34.7033L32.74 32.6821L32.6455 31.613H37.3824Z" fill="#EBEBEB"/>
</svg>
