<svg width="142" height="32" viewBox="0 0 142 32" fill="none" xmlns="http://www.w3.org/2000/svg">
<path fill-rule="evenodd" clip-rule="evenodd" d="M135.099 2.38501L141.007 2.41756C141.007 2.41756 130.022 17.3042 129.124 18.5174C128.833 18.9103 128.391 19.334 128.166 19.8592C127.599 21.1795 127.016 24.0758 127.016 24.0758L121.609 24.1028C121.609 24.1028 122.451 21.0838 122.416 19.4758C122.386 18.0711 121.668 16.668 121.266 15.2592C120.86 13.833 120.308 11.0424 120.308 11.0424H125.866L126.633 14.1091L135.099 2.38501Z" fill="#1A1918"/>
<path fill-rule="evenodd" clip-rule="evenodd" d="M123.909 5.52462C124.999 6.182 125.669 9.80848 125.669 9.80848C125.669 9.80848 119.963 9.89262 116.858 9.89262H114.174L110.916 24.0758H105.933C105.933 24.0758 109.034 8.66228 109.766 5.86779C110.003 4.96297 111.391 5.11828 113.735 5.11828H117.479C119.896 5.11828 122.721 4.80959 123.909 5.52462Z" fill="#1A1918"/>
<path fill-rule="evenodd" clip-rule="evenodd" d="M100.711 12.4323C100.711 12.4323 100.866 11.5219 100.184 10.4676C99.6007 9.56883 99.0625 9.35973 97.529 9.31173C93.1994 9.17573 93.2835 12.3843 93.2835 12.3843L100.711 12.4323ZM105.406 8.7578C106.041 11.0466 104.831 16.4246 104.831 16.4246C104.831 16.4246 98.5158 16.3192 95.0565 16.4246C93.9809 16.4574 92.6934 16.3076 92.3731 16.808C91.9227 17.5092 92.5378 18.5887 93.0592 19.0447C93.6592 19.5697 94.828 19.6295 95.2482 19.6828C98.0559 20.0395 103.932 19.7749 103.932 19.7749L102.914 24.2825C102.914 24.2825 94.6101 24.699 90.4565 23.7076C89.6363 23.5123 88.8675 23.1175 88.348 22.5578C88.2062 22.4047 88.0832 22.1959 87.9491 22.0155C87.8421 21.8715 87.5298 21.3983 87.3897 21.0243C86.441 18.4963 87.5009 13.6532 88.5398 11.0579C88.6603 10.7572 88.8118 10.3757 88.9712 10.0516C89.1704 9.64745 89.3389 9.19118 89.4981 8.94952C89.6051 8.7829 89.7378 8.67559 89.849 8.51835C89.9773 8.33242 90.1265 8.15228 90.2647 7.99145C90.6482 7.54677 91.0832 7.23228 91.6065 6.84166C93.337 5.54566 96.4689 4.53959 100.231 4.9247C101.648 5.07035 103.787 5.57628 104.831 7.03311C105.111 7.42208 105.249 8.19449 105.406 8.75808V8.7578Z" fill="#1A1918"/>
<path fill-rule="evenodd" clip-rule="evenodd" d="M82.5494 5.10068L87.3814 5.07227C87.3814 5.07227 84.6884 17.8466 83.316 24.0759H77.7574C73.8727 24.0759 70.4131 24.557 68.9411 21.7757C67.5132 19.0753 68.876 14.6345 69.516 11.6174C69.9684 9.4822 70.9212 5.11806 70.9212 5.11806L75.9276 5.07227C75.9276 5.07227 74.513 11.8667 73.9243 15.2593C73.7135 16.4745 73.2788 17.6187 73.7328 18.5172C74.164 19.3724 74.7679 19.4336 76.6076 19.4759C77.1905 19.4896 79.0994 19.4759 79.0994 19.4759L82.5494 5.10068Z" fill="#1A1918"/>
<path fill-rule="evenodd" clip-rule="evenodd" d="M59.9337 14.3007C60.4396 12.5032 61.1776 10.5539 61.0838 8.93408C60.9822 7.20167 59.5296 5.62429 58.5922 5.2927C55.769 4.29601 53.126 5.68939 52.0755 6.82595C50.7166 8.29795 50.2565 10.0174 49.7754 12.3846C49.4173 14.1418 49.1238 15.997 49.7754 17.3675C50.929 19.7904 54.5268 19.2613 58.4005 19.2844C58.9754 17.7435 59.4507 16.0127 59.9337 14.3007ZM66.6421 7.20939C67.1938 11.2226 65.0763 15.6524 63.6176 19.5046C65.105 19.6389 66.4085 19.4839 66.5022 19.5948C66.5999 19.7385 65.5053 24.1928 65.1238 24.2044C63.9434 24.235 60.0316 24.2676 58.4005 24.2676C53.0777 24.2676 48.0984 24.6144 45.5591 21.9677C44.5279 20.8924 43.8148 19.0483 43.6421 17.7509C43.3547 15.5851 43.7149 13.2006 44.2173 11.2345C44.6716 9.45932 45.254 7.78429 46.134 6.25077C48.3707 2.34677 52.2614 -0.551157 58.7836 0.117808C60.0487 0.248015 61.8656 0.801946 63.0005 1.45933C63.0788 1.50539 63.3533 1.72388 63.4162 1.76222C64.9497 2.73795 66.3469 5.0665 66.6421 7.20939Z" fill="#1A1918"/>
<path fill-rule="evenodd" clip-rule="evenodd" d="M43.092 5.12397C42.77 6.59018 42.4481 8.25225 42.1088 9.70107H36.7422C37.1579 8.09501 37.4763 6.49832 37.8923 5.10107C39.6095 5.10107 41.2062 5.12397 43.0923 5.12397" fill="#1A1918"/>
<path fill-rule="evenodd" clip-rule="evenodd" d="M36.5498 11.0427H41.7249C41.0483 14.7878 39.7084 20.8289 38.6582 25.0342C38.0008 27.6659 37.5619 29.5862 35.7831 30.9757C35.624 31.1004 35.5321 31.0411 35.3997 31.1674C35.072 31.48 33.5558 31.8424 32.7167 31.934C31.352 32.0819 29.8091 31.9533 28.1318 31.9189C28.5707 30.3147 29.0673 28.3884 29.4585 26.9506C33.5467 27.4455 33.6502 23.5812 34.4416 19.8593C34.8996 17.7087 36.2874 11.9051 36.5498 11.0427Z" fill="#1A1918"/>
<path fill-rule="evenodd" clip-rule="evenodd" d="M24.475 20.8178L24.3641 21.1052C22.4745 24.7852 19.1258 27.0429 14.3495 27.1425C12.1167 27.1885 9.98925 26.6156 8.59945 25.9927C5.60028 24.6451 3.07752 22.1461 1.69987 19.476C-0.27641 15.6484 -0.632823 10.324 3.47642 6.34717C3.53987 6.34717 2.97794 7.20951 3.04138 7.20951L2.92828 7.57751C-0.0328235 16.8481 9.09021 24.793 17.9586 23.8843C20.0899 23.6658 22.8077 22.4986 24.475 20.8178Z" fill="#21609B"/>
<path fill-rule="evenodd" clip-rule="evenodd" d="M19.1083 16.9844C21.3394 16.9996 23.6699 15.9568 25.0501 14.4928C23.8426 17.5576 20.3466 19.5276 15.6586 18.9011C11.7331 18.3758 7.99378 14.4258 7.60868 10.4677C7.32702 7.58716 8.33088 5.86799 9.98523 3.78247C9.41033 4.87323 9.19544 5.71433 9.14192 6.25088C8.5135 12.4821 14.1196 16.9516 19.1083 16.9844Z" fill="#21609B"/>
<path fill-rule="evenodd" clip-rule="evenodd" d="M24.8261 9.2448C24.4793 10.0404 22.4824 11.5427 21.6004 11.7306C18.1083 12.4746 15.8719 10.8186 14.7003 8.93418C14.5262 8.6528 14.2043 7.88425 14.1466 7.68866C13.6923 6.14383 13.9011 3.80728 15.2564 2.5979C14.8482 3.74797 14.7886 5.08369 15.0035 5.95211C15.1337 6.47707 15.5304 7.39376 15.9273 7.97031C16.6495 9.02052 17.1078 9.27569 18.0355 9.83349C18.4534 10.0845 18.9017 10.2859 19.0953 10.3411C19.9751 10.6001 21.8324 11.2823 24.8264 9.2448" fill="#21609B"/>
</svg>
