<svg width="48" height="40" viewBox="0 0 48 40" fill="none" xmlns="http://www.w3.org/2000/svg">
<path d="M23.54 18.4801H19.912V12.4041H24.216C26.556 12.4041 27.884 13.4481 27.884 15.3361C27.884 17.3521 26.338 18.4801 23.536 18.4801H23.54ZM24.188 20.8921H19.914V27.5881H24.376C27.294 27.5881 28.84 26.4181 28.84 24.2181C28.84 22.0181 27.25 20.8921 24.188 20.8921ZM48 18.7801V21.2161C45.744 21.4321 44.366 23.1041 43.548 25.7521C42.734 28.3901 42.622 31.6261 42.708 34.1241C42.798 36.7241 40.772 39.1241 38.034 39.1241H9.97C7.23 39.1241 5.204 36.7241 5.296 34.1241C5.382 31.6261 5.27 28.3901 4.456 25.7521C3.636 23.1041 2.256 21.4321 0 21.2161V18.7801C2.256 18.5641 3.638 16.8921 4.454 14.2441C5.27 11.6061 5.382 8.37007 5.294 5.87207C5.204 3.27207 7.23 0.87207 9.97 0.87207H38.034C40.774 0.87207 42.798 3.27207 42.708 5.87207C42.622 8.37007 42.734 11.6061 43.548 14.2441C44.366 16.8921 45.744 18.5641 48 18.7801ZM32.146 24.4141C32.146 21.7061 30.24 19.7481 27.41 19.4381V19.3241C29.49 18.9861 31.122 17.0541 31.122 14.8981C31.122 11.8241 28.696 9.82207 24.998 9.82207H16.678V30.1661H25.04C29.476 30.1661 32.146 27.9941 32.146 24.4141Z" fill="black"/>
</svg>
