<svg width="48" height="48" viewBox="0 0 48 48" fill="none" xmlns="http://www.w3.org/2000/svg">
<path d="M4.75098 5H43.25V42.449H4.75098V5Z" fill="#0C0824"/>
<path d="M4.7505 5.7505H43.2495V43.1995H4.7505V5.7505ZM3 44.95H45V4H3V44.95ZM31.3155 20.8C29.9325 20.8 29.46 21.5005 29.46 22.078C29.46 22.708 29.775 23.146 31.6305 24.1075C34.3785 25.438 35.2305 26.7145 35.2305 28.588C35.2305 31.3885 33.096 32.893 30.2085 32.893C28.9693 32.9389 27.7376 32.6815 26.6205 32.143C26.4975 32.0905 26.481 32.0035 26.481 31.8625V29.287C26.481 29.1115 26.568 29.059 26.691 29.1475C27.7401 29.8221 28.9612 30.1804 30.2085 30.1795C31.5915 30.1795 32.169 29.602 32.169 28.8145C32.169 28.1845 31.767 27.625 29.9985 26.7145C27.513 25.525 26.481 24.3145 26.481 22.3045C26.481 20.047 28.248 18.175 31.311 18.175C32.3772 18.1292 33.4418 18.2959 34.443 18.6655C34.5007 18.7029 34.5473 18.755 34.5781 18.8165C34.609 18.8779 34.6229 18.9464 34.6185 19.015V21.415C34.6185 21.5545 34.5315 21.643 34.356 21.5905C33.4307 21.0578 32.3785 20.7857 31.311 20.803L31.3155 20.8ZM16.2645 22.882C16.6665 22.9165 16.9815 22.9165 17.682 22.9165C19.7295 22.9165 21.654 22.1995 21.654 19.417C21.654 17.194 20.271 16.075 17.9445 16.075C17.244 16.075 16.5795 16.1095 16.2645 16.1275V22.882ZM13.149 13.582C13.149 13.459 13.3935 13.372 13.5345 13.372C15.0387 13.3105 16.544 13.2815 18.0495 13.285C22.8975 13.285 24.7875 15.9445 24.7875 19.3405C24.7875 23.785 21.567 25.693 17.613 25.693C16.9485 25.693 16.7205 25.6585 16.248 25.6585V32.3785C16.248 32.518 16.1955 32.5885 16.038 32.5885H13.3605C13.221 32.5885 13.1505 32.536 13.1505 32.3785V13.5895L13.149 13.582Z" fill="#31C5F0"/>
</svg>
